<svg width="493" height="493" viewBox="0 0 493 493" fill="none" xmlns="http://www.w3.org/2000/svg">
<g clip-path="url(#clip0_10_52)">
<path d="M141.942 247.531C141.835 246.965 136.765 238.87 137.643 229.708C138.522 220.546 144.018 216.12 148.028 212.762C152.889 208.699 165.042 199.64 169.661 202.903C174.28 206.167 174.055 209.48 178.125 208.837C182.194 208.194 180.433 219.141 180.433 219.141L141.942 247.531ZM302.122 155.566C302.122 155.566 298.821 146.771 291.116 143.973C279.523 139.735 267.198 143.273 256.974 149.13C253.686 151.012 250.11 153.905 251.085 158.556C251.659 161.243 252.732 164.294 251.31 165.519C249.918 166.75 289.679 157.845 302.122 155.566Z" fill="#2B2762"/>
<g filter="url(#filter0_d_10_52)">
<path d="M224.985 310.819C221.968 318.143 231.402 351.33 224.524 365.473C217.646 379.615 189.742 390.146 178.84 375.576C169.235 362.723 155.66 331.907 146.352 297.802C137.045 263.698 134.539 245.596 149.78 230.475C162.003 218.337 188.738 199.405 216.372 183.939C244.024 168.462 268.088 154.679 286.524 151.789C303.055 149.194 320.361 157.974 342.438 181.822C364.508 205.698 388.325 235.953 393.825 247.323C401.85 263.903 385.138 286.983 361.291 284.216C342.304 282.019 325.352 258.444 316.437 258.798C307.523 259.153 227.719 304.139 224.985 310.819Z" fill="#474CE3"/>
</g>
<path d="M319.151 246.945C318.78 249.328 323.188 250.035 328.379 254.129C333.57 258.223 349.182 272.677 357.358 274.53C367.547 276.822 372.104 272.692 372.019 270.185C371.933 267.677 363.307 266.009 350.159 258.803C337.011 251.597 319.93 241.988 319.151 246.945ZM166.313 328.482C164.505 330 174.52 359.864 184.97 368.929C193.685 376.48 206.645 369.756 210.623 365.668C218.553 357.532 216.268 346.637 213.524 346.858C210.798 347.068 207.399 358.567 198.384 359.292C188.323 360.086 182.398 349.491 175.285 339.431C168.885 330.362 168.04 327.034 166.313 328.482ZM182.191 240.444C181.446 240.871 174.888 244.579 174.888 244.579L170.399 236.658C170.399 236.658 166.893 230.2 160.148 234.257C154.1 237.89 157.15 242.92 157.722 243.919C158.294 244.918 162.18 251.786 162.18 251.786C162.18 251.786 155.201 255.687 153.932 256.462C152.663 257.236 147.874 260.076 151.442 266.305C154.813 272.19 160.046 269.747 161.193 269.138C162.34 268.529 169.404 264.483 169.404 264.483C169.404 264.483 173.126 271.107 173.758 272.168C174.39 273.229 177.482 278.163 183.602 274.658C190.285 270.83 186.434 264.907 186.434 264.907L182.112 257.276C182.112 257.276 188.391 253.753 189.47 253.11C191.011 252.179 195.367 249.13 191.871 242.859C188.399 236.671 182.954 240.007 182.191 240.444Z" fill="#2B2762"/>
<path d="M231.238 282.322C239.804 277.415 242.77 266.494 237.864 257.928C232.958 249.363 222.036 246.396 213.471 251.302C204.905 256.209 201.938 267.13 206.845 275.696C211.751 284.261 222.672 287.228 231.238 282.322Z" fill="#372D70"/>
<path d="M284.676 252.027C293.242 247.12 296.209 236.199 291.303 227.633C286.396 219.067 275.475 216.101 266.909 221.007C258.343 225.914 255.377 236.835 260.283 245.401C265.189 253.966 276.111 256.933 284.676 252.027Z" fill="#372D70"/>
<path d="M228.058 276.811C233.785 273.531 235.768 266.228 232.488 260.501C229.207 254.774 221.905 252.79 216.178 256.071C210.451 259.351 208.467 266.654 211.748 272.381C215.028 278.108 222.33 280.091 228.058 276.811Z" fill="#1E2C52"/>
<path d="M281.577 246.615C287.304 243.334 289.287 236.032 286.007 230.305C282.726 224.577 275.424 222.594 269.697 225.874C263.97 229.155 261.986 236.457 265.267 242.184C268.547 247.912 275.849 249.895 281.577 246.615Z" fill="#1E2C52"/>
<path d="M277.675 205.82C282.289 203.177 283.886 197.295 281.244 192.681C278.601 188.067 272.718 186.469 268.104 189.112C263.491 191.755 261.893 197.637 264.535 202.251C267.178 206.865 273.061 208.463 277.675 205.82Z" fill="#2086FA"/>
<path d="M303.402 212.333C308.016 209.69 309.614 203.808 306.971 199.194C304.329 194.58 298.446 192.982 293.832 195.625C289.218 198.268 287.62 204.15 290.263 208.764C292.906 213.378 298.789 214.976 303.402 212.333Z" fill="#06AC48"/>
<path d="M311.669 188.109C316.283 185.467 317.881 179.584 315.238 174.97C312.596 170.356 306.713 168.758 302.099 171.401C297.485 174.044 295.887 179.927 298.53 184.54C301.173 189.154 307.055 190.752 311.669 188.109Z" fill="#F72E26"/>
<path d="M285.375 180.522C289.988 177.88 291.586 171.997 288.944 167.383C286.301 162.769 280.418 161.171 275.804 163.814C271.19 166.457 269.593 172.339 272.235 176.953C274.878 181.567 280.761 183.165 285.375 180.522Z" fill="#FDB700"/>
</g>
<defs>
<filter id="filter0_d_10_52" x="88.8574" y="105.35" width="357.003" height="331.227" filterUnits="userSpaceOnUse" color-interpolation-filters="sRGB">
<feFlood flood-opacity="0" result="BackgroundImageFix"/>
<feColorMatrix in="SourceAlpha" type="matrix" values="0 0 0 0 0 0 0 0 0 0 0 0 0 0 0 0 0 0 127 0" result="hardAlpha"/>
<feOffset dy="4"/>
<feGaussianBlur stdDeviation="25"/>
<feComposite in2="hardAlpha" operator="out"/>
<feColorMatrix type="matrix" values="0 0 0 0 0.278431 0 0 0 0 0.298039 0 0 0 0 0.890196 0 0 0 1 0"/>
<feBlend mode="normal" in2="BackgroundImageFix" result="effect1_dropShadow_10_52"/>
<feBlend mode="normal" in="SourceGraphic" in2="effect1_dropShadow_10_52" result="shape"/>
</filter>
<clipPath id="clip0_10_52">
<rect width="361" height="361" fill="white" transform="translate(0 179.426) rotate(-29.8033)"/>
</clipPath>
</defs>
</svg>
