<svg width="50" height="50" viewBox="0 0 50 50" fill="none" xmlns="http://www.w3.org/2000/svg">
<path d="M41.9 23.9C41.6 17.8 37.9 12.1 32.4 9.49999C26.4 6.79999 19.1 7.89999 14.1 12.1C9.29998 16.1 7.09998 22.6 8.49998 28.7C9.79998 34.7 14.5 39.6 20.4 41.2C27.5 43.2 34 39.8 38 34C34.4 38.8 28.9 42 22.8 40.9C16.7 39.8 11.7 35.2 10.3 29.2C8.79998 22.8 11.8 16.1 17.5 12.8C23.4 9.39999 31.7 10.7 35.6 16.5C36.6 17.9 37.3 19.6 37.6 21.3C37.9 22.7 37.8 24.2 38 25.6C38.2 26.9 39.3 28.6 40.8 27.7C42.1 26.9 42 25.2 41.9 23.9C42 24.6 41.9 23.5 41.9 23.9Z" fill="url(#paint0_linear_32_2)"/>
<defs>
<linearGradient id="paint0_linear_32_2" x1="25.0187" y1="8.02814" x2="25.0187" y2="41.7762" gradientUnits="userSpaceOnUse">
<stop stop-color="#16163A"/>
<stop offset="1" stop-color="#0000F9"/>
</linearGradient>
</defs>
</svg>
